<?xml version="1.0" encoding="UTF-8"?>
<svg version="1.1" xmlns="http://www.w3.org/2000/svg" width="156" height="206">
<path d="M0 0 C51.48 0 102.96 0 156 0 C156 67.98 156 135.96 156 206 C104.52 206 53.04 206 0 206 C0 138.02 0 70.04 0 0 Z " fill="#040301" transform="translate(0,0)"/>
<path d="M0 0 C0.99 0.495 0.99 0.495 2 1 C1.66266846 1.78536133 1.32533691 2.57072266 0.9777832 3.37988281 C-0.29942141 6.35427275 -1.57604192 9.32891257 -2.85229492 12.30371094 C-3.39992042 13.57984964 -3.9477643 14.85589465 -4.49584961 16.13183594 C-5.29341224 17.98867285 -6.09025352 19.84581713 -6.88671875 21.703125 C-7.15072479 22.31837036 -7.41473083 22.93361572 -7.68673706 23.56750488 C-9.78878035 28.47802846 -11.82335535 33.41474154 -13.84594727 38.35839844 C-14.86657444 40.69459181 -16.00972862 42.84835552 -17.265625 45.0625 C-19.72530044 49.84327762 -19.66981912 54.71535078 -19.75 60 C-19.79447266 61.44826172 -19.79447266 61.44826172 -19.83984375 62.92578125 C-19.90988791 65.28393466 -19.96290292 67.64113746 -20 70 C-23.24428893 70.69940811 -26.38424611 71.17432157 -29.69506836 71.38891602 C-30.59627914 71.44890274 -31.49748993 71.50888947 -32.42601013 71.57069397 C-33.38757523 71.63115402 -34.34914032 71.69161407 -35.33984375 71.75390625 C-36.33955704 71.81907944 -37.33927032 71.88425262 -38.36927795 71.95140076 C-40.47972471 72.08826016 -42.59027818 72.22348235 -44.70092773 72.35717773 C-47.9226373 72.56155714 -51.14394244 72.77157278 -54.36523438 72.98242188 C-56.41924927 73.11491797 -58.4732851 73.24709019 -60.52734375 73.37890625 C-61.48688461 73.44139053 -62.44642548 73.50387482 -63.43504333 73.56825256 C-64.79158775 73.65350441 -64.79158775 73.65350441 -66.17553711 73.74047852 C-67.35870766 73.81589622 -67.35870766 73.81589622 -68.56578064 73.89283752 C-71.37949476 74.01670663 -74.18392912 74.01692697 -77 74 C-76.87471924 75.21807343 -76.74943848 76.43614685 -76.62036133 77.69113159 C-75.4377869 89.19550725 -74.26055318 100.70041868 -73.08848572 112.20586967 C-72.48581024 118.12027085 -71.88128422 124.03447044 -71.27246094 129.94824219 C-70.68449264 135.66011928 -70.10147445 141.37248231 -69.52182007 147.08520889 C-69.30030903 149.25975525 -69.07704402 151.43412372 -68.85195923 153.60830307 C-68.53592022 156.66402822 -68.22624165 159.7203384 -67.91796875 162.77685547 C-67.82446136 163.66662582 -67.73095398 164.55639618 -67.63461304 165.47312927 C-67.0522997 171.33316689 -66.8960666 177.11260929 -67 183 C-67.33 183 -67.66 183 -68 183 C-68.46542901 180.58823147 -68.93085785 178.17646291 -69.39628601 175.76469421 C-69.82036571 173.56719409 -70.24444826 171.36969452 -70.66853333 169.17219543 C-71.88309161 162.87864423 -73.0975958 156.58508259 -74.31201172 150.29150391 C-74.8264896 147.62532402 -75.34097603 144.95914578 -75.85546875 142.29296875 C-75.9855986 141.61861534 -76.11572845 140.94426193 -76.24980164 140.24947357 C-78.35218452 129.354811 -80.45598121 118.46042199 -82.56060791 107.56619263 C-83.70460955 101.64365857 -84.8476817 95.72094776 -85.98876953 89.79785156 C-86.43912598 87.46028615 -86.88948405 85.12272104 -87.33984375 82.78515625 C-87.5600116 81.64223114 -87.78017944 80.49930603 -88.00701904 79.32174683 C-89.33983365 72.40806952 -90.68095007 65.49606155 -92.02862549 58.58526611 C-92.88365937 54.19686908 -93.73442298 49.80765063 -94.58441162 45.41827393 C-94.98218489 43.36982817 -95.38192184 41.32176261 -95.78375244 39.27410889 C-96.33356489 36.47145758 -96.87654394 33.66756307 -97.41796875 30.86328125 C-97.57987198 30.04733994 -97.74177521 29.23139862 -97.90858459 28.39073181 C-98.71132081 24.19334856 -99.17373786 20.29797439 -99 16 C-93.05192005 16.59337949 -87.27984971 17.43962296 -81.43359375 18.671875 C-80.25055161 18.9160743 -80.25055161 18.9160743 -79.04360962 19.16520691 C-76.50743439 19.68966933 -73.9724891 20.21983732 -71.4375 20.75 C-69.68489652 21.11310795 -67.93221039 21.47581714 -66.17944336 21.83813477 C-58.5772922 23.41171857 -50.97871831 25.00202665 -43.3828125 26.60546875 C-41.75001343 26.94916504 -41.75001343 26.94916504 -40.08422852 27.29980469 C-38.14129193 27.70983542 -36.19901052 28.12298978 -34.25756836 28.54003906 C-29.18062709 29.61469568 -24.15917015 30.43207281 -19 31 C-12.5415691 20.73931959 -6.19813399 10.42005135 0 0 Z " fill="#FAFAFA" transform="translate(103,10)"/>
<path d="M0 0 C3.36720387 1.39332574 4.9859524 2.9789286 7 6 C6.67 6.66 6.34 7.32 6 8 C5.505 7.505 5.505 7.505 5 7 C4.34 7.66 3.68 8.32 3 9 C2.505 8.01 2.505 8.01 2 7 C-1.41727124 9.65705392 -1.83786535 12.54690662 -2.7175293 16.67456055 C-2.86427094 17.347995 -3.01101257 18.02142944 -3.16220093 18.715271 C-3.64354003 20.93694187 -4.10891615 23.16163899 -4.57421875 25.38671875 C-4.9052562 26.92963837 -5.23728569 28.47234546 -5.57026672 30.0148468 C-6.44324595 34.07175189 -7.30272014 38.13140381 -8.15942383 42.19177246 C-9.19052326 47.0648256 -10.23834231 51.93430731 -11.28336334 56.80438995 C-12.86840921 64.20026813 -14.43213398 71.60036665 -16 79 C-28.87 79.66 -41.74 80.32 -55 81 C-54.34984452 89.0756136 -54.34984452 89.0756136 -53.68359375 97.14990234 C-53.40438648 100.76463928 -53.19771091 104.37991556 -53 108 C-52.90468994 109.26166992 -52.80937988 110.52333984 -52.71118164 111.82324219 C-51.91670156 126.66185862 -55.73920864 141.02384309 -58.96801758 155.39666748 C-59.60076069 158.23142572 -60.21715693 161.06962755 -60.83290005 163.9081192 C-62.10303362 169.76204657 -63.38530985 175.61335526 -64.69311523 181.45898438 C-65.03619972 182.99637268 -65.03619972 182.99637268 -65.38621521 184.56481934 C-66 187 -66 187 -67 189 C-66.01 189 -65.02 189 -64 189 C-64.9977758 191.99332739 -65.7522025 192.94766315 -68 195 C-69.18172286 192.63655429 -69.22946046 190.98315938 -69.39013672 188.34423828 C-69.45572784 187.34552704 -69.52131897 186.3468158 -69.58889771 185.31784058 C-69.66010834 184.20490631 -69.73131897 183.09197205 -69.8046875 181.9453125 C-70.62995533 169.99833085 -71.73140226 158.09285109 -72.9453125 146.1796875 C-73.03290581 145.31704536 -73.12049911 144.45440323 -73.21074677 143.56562042 C-73.93695649 136.41948861 -74.6714665 129.27421629 -75.40808105 122.12915039 C-75.96295615 116.74554933 -76.51422686 111.36160463 -77.06042099 105.97711563 C-77.3139054 103.49248923 -77.57263492 101.00844647 -77.83157349 98.52438354 C-78.56853986 91.33277056 -79.2228477 84.23995911 -79 77 C-60.04698805 74.90894 -41.03571399 73.9728218 -22 73 C-22.02618408 72.41621582 -22.05236816 71.83243164 -22.0793457 71.23095703 C-22.86693957 51.03266367 -22.86693957 51.03266367 -18.40673828 44.27832031 C-17.05317351 42.08611857 -16.1256809 40.03321607 -15.21484375 37.62890625 C-13.56588963 33.39347209 -11.82254389 29.2114005 -10.01953125 25.0390625 C-9.758909 24.4355748 -9.49828674 23.8320871 -9.22976685 23.21031189 C-8.14976254 20.71095653 -7.06778238 18.21247243 -5.98266602 15.71533203 C-5.17976721 13.86607325 -4.3808437 12.0150901 -3.58203125 10.1640625 C-3.10999268 9.07561035 -2.6379541 7.9871582 -2.15161133 6.86572266 C-1.22598586 4.56235362 -0.50780392 2.42149615 0 0 Z " fill="#060503" transform="translate(105,7)"/>
<path d="M0 0 C0.33 0 0.66 0 1 0 C1.26669218 9.70325373 0.2560426 19.24208699 -0.6796875 28.88671875 C-0.85448365 30.71651595 -1.02905045 32.54633508 -1.20339966 34.37617493 C-1.56842767 38.19486589 -1.93705332 42.01318869 -2.30810547 45.83129883 C-2.78207592 50.71268487 -3.24571909 55.59498944 -3.7065258 60.47763348 C-4.06394613 64.25025636 -4.42748594 68.02227099 -4.79278946 71.79413795 C-4.96624419 73.59398814 -5.13766612 75.39403548 -5.3069725 77.19428062 C-5.54453111 79.71180206 -5.79050275 82.22836868 -6.03857422 84.74487305 C-6.10618958 85.48010696 -6.17380493 86.21534088 -6.24346924 86.97285461 C-6.70507838 91.54230072 -7.62708745 95.64124002 -9 100 C-13.5199198 101.14232219 -18.04059757 102.28157571 -22.56201172 103.41796875 C-24.10063664 103.80514226 -25.63904951 104.19315949 -27.17724609 104.58203125 C-29.38584316 105.14023244 -31.59518037 105.69541362 -33.8046875 106.25 C-34.49432587 106.42499023 -35.18396423 106.59998047 -35.89450073 106.78027344 C-40.77225659 108 -40.77225659 108 -43 108 C-43.08636719 108.54785156 -43.17273438 109.09570312 -43.26171875 109.66015625 C-44.30577912 115.55095557 -45.95628644 121.06145343 -47.90551758 126.71313477 C-49.74207903 132.0949781 -51.33680324 137.52603917 -52.875 143 C-55.08836678 150.85788775 -57.37890454 158.68816481 -59.75 166.5 C-60.04374512 167.47324219 -60.33749023 168.44648438 -60.64013672 169.44921875 C-60.91873535 170.36316406 -61.19733398 171.27710938 -61.484375 172.21875 C-61.72897461 173.02248047 -61.97357422 173.82621094 -62.22558594 174.65429688 C-63.04939656 177.14962236 -64.00070434 179.57021313 -65 182 C-66.42168922 179.15662155 -65.62184119 177.54335477 -64.92016602 174.45898438 C-64.65982071 173.29596802 -64.3994754 172.13295166 -64.13124084 170.93469238 C-63.69696022 169.0334259 -63.69696022 169.0334259 -63.25390625 167.09375 C-62.95987804 165.77234693 -62.667004 164.45068657 -62.37522888 163.12878418 C-61.13595659 157.51888664 -59.88553041 151.91163386 -58.60913086 146.31005859 C-53.46973952 123.90382844 -53.46973952 123.90382844 -53 101 C-53.08588379 99.70787598 -53.17176758 98.41575195 -53.26025391 97.08447266 C-53.41881242 94.83785025 -53.5909596 92.59214148 -53.77734375 90.34765625 C-54.13971931 84.89930786 -54.08158805 79.45733422 -54 74 C-50.15045261 72.71681754 -46.39454798 72.63129466 -42.375 72.4375 C-41.5399292 72.3950415 -40.7048584 72.35258301 -39.84448242 72.30883789 C-31.56096547 71.92085298 -23.29027585 71.90446545 -15 72 C-14.96152954 71.43796371 -14.92305908 70.87592743 -14.88342285 70.29685974 C-14.26093564 62.78262375 -12.74362064 55.57090634 -11.09375 48.22265625 C-10.80898804 46.9343541 -10.52422607 45.64605194 -10.23083496 44.31871033 C-9.63247291 41.6126456 -9.03042694 38.90743917 -8.42529297 36.20288086 C-7.65017292 32.73844551 -6.8815494 29.27261098 -6.11528778 25.8062067 C-5.38111865 22.48620512 -4.64376206 19.16691697 -3.90625 15.84765625 C-3.63018921 14.60395767 -3.35412842 13.36025909 -3.06970215 12.07887268 C-2.68425232 10.3557914 -2.68425232 10.3557914 -2.29101562 8.59790039 C-2.06530884 7.58659561 -1.83960205 6.57529083 -1.60705566 5.53334045 C-1 3 -1 3 0 0 Z " fill="#F6F6F6" transform="translate(104,14)"/>
<path d="M0 0 C0 6.6 0 13.2 0 20 C-2.660625 21.11375 -2.660625 21.11375 -5.375 22.25 C-6.47328125 22.71792969 -7.5715625 23.18585938 -8.703125 23.66796875 C-12 25 -12 25 -14.671875 25.80078125 C-22.92473114 28.36337193 -27.03811039 34.349592 -32 41 C-33.0190457 42.33600084 -34.03995513 43.67058169 -35.0625 45.00390625 C-36.69614063 47.1363571 -38.32778805 49.27013671 -39.95214844 51.40966797 C-43.90664121 56.61202808 -47.94663074 61.73690536 -52.0625 66.8125 C-52.5985083 67.47604492 -53.1345166 68.13958984 -53.68676758 68.82324219 C-56.31801833 72.05050825 -58.9783215 75.12324613 -62 78 C-60.52779568 73.8440899 -58.47786251 70.51436056 -56 66.875 C-55.58500244 66.2452124 -55.17000488 65.6154248 -54.74243164 64.96655273 C-52.14049652 61.04292749 -49.43747154 57.22901179 -46.59326172 53.47642517 C-35.25037192 38.43239643 -28.85870186 26.60339569 -31 7 C-5.30964467 0 -5.30964467 0 0 0 Z " fill="#F7F7F6" transform="translate(103,118)"/>
<path d="M0 0 C-0.54493523 8.76198486 -1.56543426 17.34099665 -3 26 C-7.05864282 27.34527797 -11.12248583 28.67411108 -15.1875 30 C-16.33798828 30.3815625 -17.48847656 30.763125 -18.67382812 31.15625 C-19.78564453 31.5171875 -20.89746094 31.878125 -22.04296875 32.25 C-23.06414795 32.58515625 -24.08532715 32.9203125 -25.13745117 33.265625 C-27.89670974 33.97350131 -30.16784522 34.14558868 -33 34 C-32.88201748 29.88806264 -32.75778941 25.77636712 -32.62768555 21.66479492 C-32.58428566 20.26510801 -32.54261436 18.86536641 -32.50268555 17.46557617 C-32.44510555 15.45738505 -32.38086 13.44938851 -32.31640625 11.44140625 C-32.27974854 10.23170166 -32.24309082 9.02199707 -32.20532227 7.77563477 C-32 5 -32 5 -31 4 C-28.79904841 3.62896629 -26.58827712 3.31588887 -24.375 3.02734375 C-23.71290527 2.93997452 -23.05081055 2.85260529 -22.36865234 2.7625885 C-20.24626719 2.48358151 -18.1231568 2.21056635 -16 1.9375 C-14.56765917 1.74972361 -13.13536677 1.56157733 -11.703125 1.37304688 C-1.2196963 0 -1.2196963 0 0 0 Z " fill="#F9F9F9" transform="translate(141,94)"/>
<path d="M0 0 C2.24684608 2.24684608 2.85651606 3.85928928 3.97119141 6.81689453 C4.35143463 7.81778107 4.73167786 8.8186676 5.1234436 9.84988403 C5.52872284 10.93325043 5.93400208 12.01661682 6.3515625 13.1328125 C6.77045746 14.23978485 7.18935242 15.3467572 7.62094116 16.48727417 C8.96071244 20.03128708 10.29292943 23.57808639 11.625 27.125 C12.53075473 29.52492656 13.4369985 31.92466862 14.34375 34.32421875 C16.568185 40.2140181 18.78584801 46.10632767 21 52 C26.28 52.66 31.56 53.32 37 54 C36.71766639 56.75125089 36.42452667 59.50061337 36.125 62.25 C36.04636719 63.02730469 35.96773437 63.80460937 35.88671875 64.60546875 C34.9747394 72.81328293 34.9747394 72.81328293 33 75 C30.47818494 75.63950334 28.31132142 76.01402413 25.75 76.25 C24.44546875 76.39953125 23.1409375 76.5490625 21.796875 76.703125 C18.50773039 76.96030092 15.29649308 77.06142534 12 77 C12.14755737 76.18776978 12.14755737 76.18776978 12.2980957 75.35913086 C15.86059879 52.7751181 8.6519571 32.32636418 2.00738525 10.95463562 C1.61229767 9.66828972 1.61229767 9.66828972 1.20922852 8.35595703 C0.97526871 7.60831085 0.7413089 6.86066467 0.5002594 6.09036255 C0 4 0 4 0 0 Z " fill="#F5F5F5" transform="translate(109,16)"/>
<path d="M0 0 C4.24773706 3.10529515 7.22065496 6.54836209 10.375 10.6875 C10.86411865 11.3074585 11.3532373 11.92741699 11.85717773 12.56616211 C13.94898002 15.23138346 15.8979233 17.82897889 17.63671875 20.7421875 C21.85792859 27.61177283 27.47847257 28.84257829 34.95532227 30.68188477 C36.96518002 31.14374128 38.98201677 31.57504903 41 32 C42.25180279 36.21919103 41.67252421 39.96088565 41.0625 44.25 C40.96259766 44.99507812 40.86269531 45.74015625 40.75976562 46.5078125 C40.51319844 48.33945442 40.25749609 50.16986251 40 52 C37.18711295 51.85980308 34.37483115 51.71312045 31.5625 51.5625 C30.76005859 51.52318359 29.95761719 51.48386719 29.13085938 51.44335938 C23.11328125 51.11328125 23.11328125 51.11328125 22 50 C22.13129077 47.91232628 22.27091038 45.82517519 22.4140625 43.73828125 C22.46875611 35.10653575 19.26733163 30.06332511 14.375 23.1875 C13.66214844 22.13369141 12.94929688 21.07988281 12.21484375 19.99414062 C10.16872652 16.97752559 8.0888758 13.98710262 6 11 C4.81898313 9.29226323 3.64377782 7.58048074 2.4765625 5.86328125 C1.99525879 5.16114502 1.51395508 4.45900879 1.01806641 3.7355957 C0 2 0 2 0 0 Z " fill="#F1F1F1" transform="translate(112,15)"/>
<path d="M0 0 C0.33 0 0.66 0 1 0 C0.39576704 7.55291201 -1.4367428 14.87124318 -4 22 C-4.66 22.33 -5.32 22.66 -6 23 C-5.38771358 19.53928941 -4.75802982 16.08197134 -4.125 12.625 C-3.95097656 11.64015625 -3.77695312 10.6553125 -3.59765625 9.640625 C-3.42363281 8.69960937 -3.24960937 7.75859375 -3.0703125 6.7890625 C-2.91320801 5.91975098 -2.75610352 5.05043945 -2.59423828 4.15478516 C-2 2 -2 2 0 0 Z " fill="#BDBDBC" transform="translate(44,173)"/>
<path d="M0 0 C0.99 0.33 1.98 0.66 3 1 C-2.445 7.93 -2.445 7.93 -8 15 C-8 10.91518119 -6.29880669 9.15295347 -4 5.8125 C-3.2575 4.72582031 -2.515 3.63914063 -1.75 2.51953125 C-1.1725 1.68808594 -0.595 0.85664063 0 0 Z " fill="#B8B8B7" transform="translate(50,181)"/>
<path d="M0 0 C3.36720387 1.39332574 4.9859524 2.9789286 7 6 C6.67 6.66 6.34 7.32 6 8 C5.67 7.67 5.34 7.34 5 7 C4.34 7.66 3.68 8.32 3 9 C2.67 8.34 2.34 7.68 2 7 C1.01 7 0.02 7 -1 7 C-0.67 4.69 -0.34 2.38 0 0 Z " fill="#676665" transform="translate(105,7)"/>
<path d="M0 0 C0.33 0 0.66 0 1 0 C1.18451025 10.55808656 1.18451025 10.55808656 0 15 C-0.99 15.33 -1.98 15.66 -3 16 C-2.40984815 10.49191603 -1.43336231 5.35121931 0 0 Z " fill="#D1D1D0" transform="translate(104,14)"/>
<path d="M0 0 C0.66 0.33 1.32 0.66 2 1 C0.35 4.96 -1.3 8.92 -3 13 C-3.99 12.67 -4.98 12.34 -6 12 C-4.43358249 7.69235185 -2.31663844 3.93828536 0 0 Z " fill="#B7B7B6" transform="translate(103,10)"/>
<path d="M0 0 C2.52475462 2.52475462 3.04307871 4.73497997 4.125 8.125 C4.47820312 9.22070312 4.83140625 10.31640625 5.1953125 11.4453125 C5.46085937 12.28835937 5.72640625 13.13140625 6 14 C5.01 14.33 4.02 14.66 3 15 C2.49363393 13.25183142 1.99515381 11.50137737 1.5 9.75 C1.2215625 8.77546875 0.943125 7.8009375 0.65625 6.796875 C0 4 0 4 0 0 Z " fill="#D9D9D9" transform="translate(109,16)"/>
</svg>
