<svg data-v-423bf9ae="" xmlns="http://www.w3.org/2000/svg" viewBox="0 0 352 107" class="iconLeft"><!----><!----><!----><g data-v-423bf9ae="" id="5563e5ae-5a16-4bdb-acba-f00381bf1eef" fill="black" transform="matrix(5.212858280353729,0,0,5.212858280353729,96.99139437932868,15.07219980255472)"><path d="M2.90 8.48L2.90 8.48Q2.91 8.72 3.02 8.86Q3.14 9.00 3.30 9.06Q3.46 9.13 3.66 9.13Q3.86 9.14 4.09 9.11L4.09 9.11L4.09 10.56Q3.89 10.60 3.75 10.62Q3.60 10.64 3.49 10.65L3.49 10.65Q3.36 10.67 3.28 10.65L3.28 10.65Q2.74 10.65 2.32 10.61Q1.90 10.57 1.61 10.34Q1.32 10.11 1.16 9.64Q1.01 9.17 1.01 8.30L1.01 8.30L1.01 1.55L2.90 1.55L2.90 8.48ZM9.13 3.12L9.13 3.12Q9.69 3.12 10.35 3.29Q11.00 3.46 11.58 3.88Q12.15 4.30 12.54 5.03Q12.92 5.75 12.92 6.89L12.92 6.89Q12.92 8.02 12.54 8.75Q12.15 9.48 11.58 9.90Q11.00 10.32 10.35 10.49Q9.69 10.65 9.13 10.65L9.13 10.65Q8.57 10.65 7.91 10.49Q7.25 10.32 6.69 9.90Q6.12 9.48 5.74 8.75Q5.36 8.02 5.36 6.89L5.36 6.89Q5.36 5.75 5.74 5.03Q6.12 4.30 6.69 3.88Q7.25 3.46 7.91 3.29Q8.57 3.12 9.13 3.12ZM9.13 9.25L9.13 9.25Q9.91 9.25 10.44 8.64Q10.96 8.02 10.96 6.89L10.96 6.89Q10.96 5.75 10.44 5.14Q9.91 4.54 9.13 4.54L9.13 4.54Q8.37 4.54 7.85 5.14Q7.34 5.75 7.34 6.89L7.34 6.89Q7.34 7.45 7.48 7.89Q7.62 8.33 7.85 8.63Q8.09 8.93 8.42 9.09Q8.75 9.25 9.13 9.25ZM23.88 3.36L25.72 3.36L23.52 10.50L21.29 10.50L19.73 4.98L18.17 10.50L16.04 10.50L13.58 3.36L15.41 3.36L17.19 8.54L18.66 3.29L20.78 3.29L22.43 8.54Q22.43 8.54 22.53 8.15Q22.64 7.77 22.80 7.20Q22.96 6.62 23.15 5.95Q23.34 5.28 23.50 4.70Q23.66 4.13 23.77 3.75Q23.88 3.36 23.88 3.36L23.88 3.36ZM33.31 3.29L30.73 6.99Q31.02 7.39 31.36 7.84Q31.70 8.29 32.04 8.75Q32.38 9.21 32.71 9.66Q33.04 10.11 33.33 10.50L33.33 10.50L31.18 10.50L29.25 7.76L28.83 7.76L28.83 10.50L26.95 10.50L26.95 1.55L28.83 1.55L28.83 6.19L29.23 6.19Q29.23 6.19 29.38 5.97Q29.53 5.75 29.74 5.43Q29.96 5.11 30.21 4.74Q30.46 4.37 30.67 4.05Q30.88 3.72 31.03 3.51Q31.18 3.29 31.18 3.29L31.18 3.29L33.31 3.29ZM37.87 10.65L37.87 10.65Q36.71 10.65 35.95 10.35Q35.20 10.04 34.74 9.52Q34.29 9.00 34.10 8.32Q33.92 7.64 33.92 6.89L33.92 6.89Q33.92 6.22 34.10 5.54Q34.29 4.87 34.69 4.33Q35.08 3.79 35.73 3.46Q36.37 3.12 37.30 3.12L37.30 3.12Q38.28 3.12 38.93 3.46Q39.58 3.79 39.97 4.33Q40.36 4.87 40.52 5.54Q40.68 6.22 40.68 6.89L40.68 6.89L40.68 7.52L35.73 7.52Q35.73 8.27 36.27 8.76Q36.81 9.25 37.74 9.25L37.74 9.25Q38.28 9.25 38.72 9.14Q39.17 9.03 39.49 8.89L39.49 8.89Q39.86 8.74 40.17 8.53L40.17 8.53L40.17 10.09Q40.17 10.11 39.98 10.19Q39.80 10.28 39.49 10.38Q39.19 10.49 38.77 10.57Q38.35 10.65 37.87 10.65ZM35.73 6.19L38.91 6.19Q38.91 5.95 38.84 5.66Q38.78 5.38 38.60 5.12Q38.43 4.87 38.12 4.70Q37.80 4.54 37.30 4.54L37.30 4.54Q36.86 4.54 36.56 4.70Q36.26 4.87 36.08 5.12Q35.90 5.38 35.81 5.66Q35.73 5.95 35.73 6.19L35.73 6.19ZM46.77 3.29L48.83 3.29L46.12 10.32Q46.10 10.35 46.02 10.56Q45.93 10.78 45.75 11.09Q45.57 11.40 45.29 11.74Q45.01 12.08 44.61 12.38Q44.21 12.67 43.69 12.87Q43.16 13.06 42.50 13.06L42.50 13.06L42.50 11.45Q42.91 11.45 43.20 11.28Q43.50 11.10 43.69 10.89L43.69 10.89Q43.92 10.64 44.07 10.32L44.07 10.32L41.34 3.29L43.41 3.29L45.18 8.54L46.77 3.29Z"></path></g><!----><g data-v-423bf9ae="" id="b5866e6b-874f-483d-885e-14243e19817d" transform="matrix(1.0868111504448785,0,0,1.0868111504448785,-13.255261890115804,-0.23894260335429607)" stroke="none" fill="black"><g clip-rule="evenodd"><path d="M12.983 10.59l17.018 88.223-5.872-59.049 29.021-1.892-.054-9.883L64.549 1 53.622 18.977z"></path><path d="M59.389 54.548l5.16-53.541-8.74 39.716-19.612 1.045 1.57 20.462-7.766 36.583 12.057-39.899z"></path><path d="M62.8 67.182l.549-10.453-15.979 3.755-.032 11.797-17.337 26.532 21.68-27.616zM65.711 62.394l14.841-4.731 1.509-12.532-15.899 2.095zM72.07 44.502l10.988-1.417 1.581-10.278-8.079-.373L64.549 1l8.43 30.967z"></path><path d="M87.413 31.294l1.256-9.506-9.544-2.694L64.549 1l14.483 22.437-.422 7z"></path></g></g><!----></svg>